name analog
datacolumns 19
datarows 23
range 0.0 0.011
endheader
time	ground_force_vx	ground_force_vy	ground_force_vz	ground_force_px	ground_force_py	ground_force_pz	l_ground_force_vx	l_ground_force_vy	l_ground_force_vz	l_ground_force_px	l_ground_force_py	l_ground_force_pz	ground_torque_x	ground_torque_y	ground_torque_z	l_ground_torque_x	l_ground_torque_y	l_ground_torque_z
0.0	-0.0	-0.0	-0.0	5.091555118560791	18.545673370361328	-253.53128051757807	-0.3548431396484375	-19.159351348876957	-247.0543212890625	-0.0	-0.0	-0.0	-0.0	-0.0	-0.0	73636.6640625	14452.8369140625	-2645.21826171875
0.0005	-0.0	-0.0	-0.0	5.1936540603637695	18.424091339111328	-252.4723358154297	-0.5514911413192749	-19.07748413085937	-249.69384765625	-0.0	-0.0	-0.0	-0.0	-0.0	-0.0	73775.8046875	14052.43359375	-2700.37939453125
0.001	-0.0	-0.0	-0.0	5.492550849914551	18.38650703430176	-250.91017150878903	-0.9504405856132508	-19.418136596679688	-248.87017822265625	-0.0	-0.0	-0.0	-0.0	-0.0	-0.0	73784.703125	14100.8173828125	-2645.70751953125
0.0015	-0.0	-0.0	-0.0	5.3589701652526855	18.692049026489254	-252.12026977539065	-0.9570159316062928	-19.07124328613281	-250.19369506835935	-0.0	-0.0	-0.0	-0.0	-0.0	-0.0	73473.9140625	14150.5908203125	-2755.89697265625
0.002	-0.0	-0.0	-0.0	5.250871658325195	18.43118667602539	-252.2449951171875	-0.4683648943901062	-18.77977752685547	-247.59732055664065	-0.0	-0.0	-0.0	-0.0	-0.0	-0.0	73639.96875	14297.3212890625	-2850.77685546875
0.0025	-0.0	-0.0	-0.0	5.078799724578857	18.34847450256348	-251.7340850830078	-0.9696902632713318	-18.91304397583008	-247.620849609375	-0.0	-0.0	-0.0	-0.0	-0.0	-0.0	73633.625	13928.5126953125	-2874.70849609375
0.003	-0.0	-0.0	-0.0	5.143599033355713	18.33028030395508	-251.9384765625	-1.1411373615264893	-19.07748413085937	-248.9689178466797	-0.0	-0.0	-0.0	-0.0	-0.0	-0.0	73709.796875	14306.5380859375	-2961.943359375
0.0035	-0.0	-0.0	-0.0	4.478697776794434	17.779314041137695	-252.24241638183597	-1.0645294189453125	-18.842323303222656	-248.31748962402344	-0.0	-0.0	-0.0	-0.0	-0.0	-0.0	73454.6328125	14252.4775390625	-2934.27490234375
0.004	-0.0	-0.0	-0.0	4.99578857421875	18.099445343017575	-253.23001098632807	-1.484442949295044	-18.98916244506836	-248.9683532714844	-0.0	-0.0	-0.0	-0.0	-0.0	-0.0	73458.6484375	14345.818359375	-2944.59521484375
0.0045000000000000005	-0.0	-0.0	-0.0	4.894768238067627	18.283531188964844	-250.5448303222656	-1.4672342538833618	-18.812519073486328	-249.57449340820312	-0.0	-0.0	-0.0	-0.0	-0.0	-0.0	73700.234375	14199.2431640625	-3191.97607421875
0.005	-0.0	-0.0	-0.0	4.578937530517578	18.26006126403809	-251.4872283935547	-1.5138546228408811	-18.724197387695312	-248.6413726806641	-0.0	-0.0	-0.0	-0.0	-0.0	-0.0	73760.765625	14347.9853515625	-2918.69775390625
0.0055	-0.0	-0.0	-0.0	4.828893184661865	18.42120361328125	-251.41848754882807	-1.96302592754364	-18.900840759277344	-248.94509887695312	-0.0	-0.0	-0.0	-0.0	-0.0	-0.0	73630.296875	14443.302734375	-3243.385498046875
0.006	-0.0	-0.0	-0.0	4.912276268005371	17.837467193603516	-251.59945678710935	-2.3008503913879395	-18.994768142700195	-248.98941040039065	-0.0	-0.0	-0.0	-0.0	-0.0	-0.0	73771.890625	14311.939453125	-3378.74853515625
0.006500000000000001	-0.0	-0.0	-0.0	4.900954723358154	17.826080322265625	-251.464111328125	-2.22332501411438	-19.14921188354492	-249.55593872070312	-0.0	-0.0	-0.0	-0.0	-0.0	-0.0	73475.65625	14548.9619140625	-3237.9677734375
0.007	-0.0	-0.0	-0.0	4.884394645690918	17.69214630126953	-250.82362365722656	-2.6503665447235107	-19.160350799560547	-249.05291748046875	-0.0	-0.0	-0.0	-0.0	-0.0	-0.0	73661.515625	14568.9208984375	-3388.452392578125
0.0075	-0.0	-0.0	-0.0	4.906578063964844	17.904260635375977	-250.1815643310547	-2.5888516902923584	-19.337059020996094	-249.29425048828125	-0.0	-0.0	-0.0	-0.0	-0.0	-0.0	73663.3515625	14859.78125	-3301.271484375
0.008	-0.0	-0.0	-0.0	4.592957019805908	18.061084747314453	-251.7958984375	-2.7607064247131348	-19.088109970092773	-248.9030914306641	-0.0	-0.0	-0.0	-0.0	-0.0	-0.0	73773.4609375	14806.1552734375	-3449.624755859375
0.0085	-0.0	-0.0	-0.0	4.654930591583252	17.57998275756836	-249.0762176513672	-2.922194004058838	-19.00487899780273	-250.9571685791016	-0.0	-0.0	-0.0	-0.0	-0.0	-0.0	73898.6015625	14797.6982421875	-3561.311767578125
0.009000000000000001	-0.0	-0.0	-0.0	5.001051902770996	17.616533279418945	-249.78155517578125	-3.110074996948242	-19.056785583496094	-249.6024932861328	-0.0	-0.0	-0.0	-0.0	-0.0	-0.0	73974.4453125	14732.158203125	-3479.48291015625
0.0095	-0.0	-0.0	-0.0	4.891020774841309	17.826080322265625	-251.0904083251953	-2.75003433227539	-19.238832473754883	-249.29425048828125	-0.0	-0.0	-0.0	-0.0	-0.0	-0.0	73852.375	14902.9013671875	-3447.87109375
0.01	-0.0	-0.0	-0.0	5.006030082702637	17.762531280517578	-252.08938598632807	-2.9224002361297607	-19.102651596069336	-249.9925537109375	-0.0	-0.0	-0.0	-0.0	-0.0	-0.0	73534.1640625	14910.3359375	-3458.102783203125
0.0105	-0.0	-0.0	-0.0	5.263420104980469	18.24148368835449	-251.1109313964844	-2.7450530529022217	-19.754301071166992	-250.86355590820312	-0.0	-0.0	-0.0	-0.0	-0.0	-0.0	73629.25	14868.7236328125	-3536.990478515625
0.011	-0.0	-0.0	-0.0	5.570577144622803	17.766735076904297	-252.091796875	-2.7647476196289062	-18.949668884277344	-249.2749481201172	-0.0	-0.0	-0.0	-0.0	-0.0	-0.0	73708.3046875	14909.2236328125	-3512.05615234375
